<svg xmlns="http://www.w3.org/2000/svg" viewBox="0 0 432.4 96" role="img" aria-label="Veroptima"><g transform="scale(0.11163)"><path d="M 38.200 254.200 C 37.540 254.860, 37 257.781, 37 260.692 C 37 264.900, 37.409 266.239, 39 267.232 C 40.151 267.951, 41 269.564, 41 271.032 C 41 272.728, 42.340 274.814, 45 277.260 C 47.463 279.524, 49 281.830, 49 283.260 C 49 284.690, 50.537 286.996, 53 289.260 C 55.995 292.014, 57 293.707, 57 296 C 57 297.840, 57.617 299.300, 58.546 299.656 C 61.553 300.810, 69 309.154, 69 311.370 C 69 312.671, 70.647 315.097, 73 317.260 C 75.638 319.685, 77 321.797, 77 323.460 C 77 324.900, 77.859 326.519, 79 327.232 C 80.151 327.951, 81 329.564, 81 331.032 C 81 332.728, 82.340 334.814, 85 337.260 C 87.638 339.685, 89 341.797, 89 343.460 C 89 344.900, 89.859 346.519, 91 347.232 C 92.151 347.951, 93 349.564, 93 351.032 C 93 352.728, 94.340 354.814, 97 357.260 C 99.463 359.524, 101 361.830, 101 363.260 C 101 364.690, 102.537 366.996, 105 369.260 C 107.463 371.524, 109 373.830, 109 375.260 C 109 376.690, 110.537 378.996, 113 381.260 C 115.995 384.014, 117 385.707, 117 388 C 117 389.885, 117.615 391.299, 118.600 391.677 C 121.439 392.766, 125 397.028, 125 399.337 C 125 400.677, 126.613 403.065, 129 405.260 C 131.638 407.685, 133 409.797, 133 411.460 C 133 412.900, 133.859 414.519, 135 415.232 C 136.151 415.951, 137 417.564, 137 419.032 C 137 420.728, 138.340 422.814, 141 425.260 C 143.463 427.524, 145 429.830, 145 431.260 C 145 432.690, 146.537 434.996, 149 437.260 C 151.995 440.014, 153 441.707, 153 444 C 153 445.885, 153.615 447.299, 154.600 447.677 C 157.439 448.766, 161 453.028, 161 455.337 C 161 456.677, 162.613 459.065, 165 461.260 C 167.995 464.014, 169 465.707, 169 468 C 169 469.885, 169.615 471.299, 170.600 471.677 C 173.858 472.927, 177 477.081, 177 480.139 C 177 482.346, 177.552 483.332, 179 483.710 C 180.100 483.998, 181 484.898, 181 485.710 C 181 486.523, 181.900 487.423, 183 487.710 C 184.507 488.104, 185 489.074, 185 491.648 C 185 493.856, 185.566 495.280, 186.600 495.677 C 189.823 496.914, 193 501.083, 193 504.077 C 193 505.891, 193.628 507.304, 194.600 507.677 C 197.823 508.914, 201 513.083, 201 516.077 C 201 517.891, 201.628 519.304, 202.600 519.677 C 205.439 520.766, 209 525.028, 209 527.337 C 209 528.677, 210.613 531.065, 213 533.260 C 215.638 535.685, 217 537.797, 217 539.460 C 217 540.900, 217.859 542.519, 219 543.232 C 220.342 544.070, 221 545.564, 221 547.772 C 221 549.866, 221.582 551.286, 222.600 551.677 C 225.858 552.927, 229 557.081, 229 560.139 C 229 562.297, 229.557 563.333, 230.908 563.686 C 231.957 563.960, 233.040 565.043, 233.314 566.092 C 233.588 567.142, 234.530 568, 235.406 568 C 236.484 568, 237 568.904, 237 570.791 C 237 572.768, 238.167 574.655, 241 577.260 C 244.029 580.045, 245 581.697, 245 584.063 C 245 586.296, 245.544 587.330, 246.908 587.686 C 247.957 587.960, 249.040 589.043, 249.314 590.092 C 249.588 591.142, 250.530 592, 251.406 592 C 252.564 592, 253 592.967, 253 595.531 C 253 597.846, 253.551 599.274, 254.600 599.677 C 257.439 600.766, 261 605.028, 261 607.337 C 261 608.677, 262.613 611.065, 265 613.260 C 267.995 616.014, 269 617.707, 269 620 C 269 621.885, 269.615 623.299, 270.600 623.677 C 273.823 624.914, 277 629.083, 277 632.077 C 277 633.891, 277.628 635.304, 278.600 635.677 C 281.439 636.766, 285 641.028, 285 643.337 C 285 644.677, 286.613 647.065, 289 649.260 C 291.995 652.014, 293 653.707, 293 656 C 293 657.885, 293.615 659.299, 294.600 659.677 C 297.439 660.766, 301 665.028, 301 667.337 C 301 668.677, 302.613 671.065, 305 673.260 C 307.995 676.014, 309 677.707, 309 680 C 309 681.885, 309.615 683.299, 310.600 683.677 C 313.823 684.914, 317 689.083, 317 692.077 C 317 693.891, 317.628 695.304, 318.600 695.677 C 321.823 696.914, 325 701.083, 325 704.077 C 325 705.891, 325.628 707.304, 326.600 707.677 C 329.858 708.927, 333 713.081, 333 716.139 C 333 718.346, 333.552 719.332, 335 719.710 C 336.371 720.069, 337 721.074, 337 722.908 C 337 724.748, 338.247 726.729, 341 729.260 C 343.463 731.524, 345 733.830, 345 735.260 C 345 736.690, 346.537 738.996, 349 741.260 C 351.638 743.685, 353 745.797, 353 747.460 C 353 748.900, 353.859 750.519, 355 751.232 C 356.342 752.070, 357 753.564, 357 755.772 C 357 757.866, 357.582 759.286, 358.600 759.677 C 361.439 760.766, 365 765.028, 365 767.337 C 365 768.677, 366.613 771.065, 369 773.260 C 371.463 775.524, 373 777.830, 373 779.260 C 373 780.690, 374.537 782.996, 377 785.260 C 379.463 787.524, 381 789.830, 381 791.260 C 381 792.690, 382.537 794.996, 385 797.260 C 387.463 799.524, 389 801.830, 389 803.260 C 389 804.690, 390.537 806.996, 393 809.260 C 395.638 811.685, 397 813.797, 397 815.460 C 397 816.900, 397.859 818.519, 399 819.232 C 400.151 819.951, 401 821.564, 401 823.032 C 401 824.728, 402.340 826.814, 405 829.260 C 407.995 832.014, 409 833.707, 409 836 C 409 837.840, 409.617 839.300, 410.546 839.656 C 413.741 840.882, 421 849.155, 421 851.570 C 421 852.900, 421.898 854.544, 423 855.232 C 424.100 855.919, 425 857.273, 425 858.241 C 425 859.897, 428.014 860, 476.500 860 L 528 860 528 856.469 C 528 853.629, 528.783 852.218, 532 849.260 C 534.660 846.814, 536 844.728, 536 843.032 C 536 841.564, 536.849 839.951, 538 839.232 C 539.141 838.519, 540 836.900, 540 835.460 C 540 833.797, 541.362 831.685, 544 829.260 C 546.463 826.996, 548 824.690, 548 823.260 C 548 821.830, 549.537 819.524, 552 817.260 C 554.660 814.814, 556 812.728, 556 811.032 C 556 809.564, 556.849 807.951, 558 807.232 C 559.141 806.519, 560 804.900, 560 803.460 C 560 801.797, 561.362 799.685, 564 797.260 C 566.660 794.814, 568 792.728, 568 791.032 C 568 789.564, 568.849 787.951, 570 787.232 C 571.213 786.475, 572 784.900, 572 783.232 C 572 781.564, 572.787 779.989, 574 779.232 C 575.141 778.519, 576 776.900, 576 775.460 C 576 773.797, 577.362 771.685, 580 769.260 C 582.463 766.996, 584 764.690, 584 763.260 C 584 761.830, 585.537 759.524, 588 757.260 C 590.660 754.814, 592 752.728, 592 751.032 C 592 749.564, 592.849 747.951, 594 747.232 C 595.124 746.530, 596 744.900, 596 743.510 C 596 741.796, 597.840 739.267, 601.995 735.269 C 606.189 731.234, 607.992 728.746, 607.995 726.991 C 607.998 725.568, 608.866 723.940, 610 723.232 C 611.141 722.519, 612 720.900, 612 719.460 C 612 717.797, 613.362 715.685, 616 713.260 C 618.463 710.996, 620 708.690, 620 707.260 C 620 705.830, 621.537 703.524, 624 701.260 C 626.463 698.996, 628 696.690, 628 695.260 C 628 693.830, 629.537 691.524, 632 689.260 C 634.660 686.814, 636 684.728, 636 683.032 C 636 681.564, 636.849 679.951, 638 679.232 C 639.141 678.519, 640 676.900, 640 675.460 C 640 673.797, 641.362 671.685, 644 669.260 C 646.463 666.996, 648 664.690, 648 663.260 C 648 661.830, 649.537 659.524, 652 657.260 C 654.463 654.996, 656 652.690, 656 651.260 C 656 649.830, 657.537 647.524, 660 645.260 C 662.463 642.996, 664 640.690, 664 639.260 C 664 637.830, 665.537 635.524, 668 633.260 C 670.660 630.814, 672 628.728, 672 627.032 C 672 625.564, 672.849 623.951, 674 623.232 C 675.213 622.475, 676 620.900, 676 619.232 C 676 617.564, 676.787 615.989, 678 615.232 C 679.141 614.519, 680 612.900, 680 611.460 C 680 609.797, 681.362 607.685, 684 605.260 C 686.660 602.814, 688 600.728, 688 599.032 C 688 597.564, 688.849 595.951, 690 595.232 C 691.141 594.519, 692 592.900, 692 591.460 C 692 589.797, 693.362 587.685, 696 585.260 C 698.660 582.814, 700 580.728, 700 579.032 C 700 577.564, 700.849 575.951, 702 575.232 C 703.141 574.519, 704 572.900, 704 571.460 C 704 569.797, 705.362 567.685, 708 565.260 C 710.463 562.996, 712 560.690, 712 559.260 C 712 557.830, 713.537 555.524, 716 553.260 C 718.660 550.814, 720 548.728, 720 547.032 C 720 545.523, 720.859 543.945, 722.103 543.168 C 723.673 542.187, 724.097 541.113, 723.776 538.927 C 723.528 537.241, 723.803 535.995, 724.423 535.989 C 726.455 535.969, 732 529.306, 732 526.884 C 732 525.522, 732.914 523.910, 734.110 523.164 C 735.753 522.137, 736.090 521.201, 735.635 518.923 C 735.313 517.315, 735.407 516, 735.843 516 C 737.776 516, 744 509.280, 744 507.194 C 744 505.842, 745.603 503.464, 748 501.260 C 750.463 498.996, 752 496.690, 752 495.260 C 752 493.830, 753.537 491.524, 756 489.260 C 758.463 486.996, 760 484.690, 760 483.260 C 760 481.830, 761.537 479.524, 764 477.260 C 766.463 474.996, 768 472.690, 768 471.260 C 768 469.830, 769.537 467.524, 772 465.260 C 774.660 462.814, 776 460.728, 776 459.032 C 776 457.564, 776.849 455.951, 778 455.232 C 779.141 454.519, 780 452.900, 780 451.460 C 780 449.797, 781.362 447.685, 784 445.260 C 786.660 442.814, 788 440.728, 788 439.032 C 788 437.523, 788.859 435.945, 790.103 435.168 C 791.673 434.187, 792.097 433.113, 791.776 430.927 C 791.528 429.241, 791.803 427.995, 792.423 427.989 C 793.015 427.983, 795.017 426.418, 796.870 424.510 C 799.402 421.904, 800.121 420.414, 799.759 418.520 C 799.494 417.134, 799.730 416, 800.282 416 C 802.385 416, 807.979 409.460, 807.989 406.991 C 807.996 405.532, 808.880 403.931, 810.103 403.168 C 811.673 402.187, 812.097 401.113, 811.776 398.927 C 811.540 397.317, 811.783 396, 812.317 396 C 814.253 396, 819.979 389.447, 819.989 387.219 C 819.996 385.846, 821.593 383.473, 824 381.260 C 826.463 378.996, 828 376.690, 828 375.260 C 828 373.830, 829.537 371.524, 832 369.260 C 834.660 366.814, 836 364.728, 836 363.032 C 836 361.523, 836.859 359.945, 838.103 359.168 C 839.673 358.187, 840.097 357.113, 839.776 354.927 C 839.540 353.317, 839.783 352, 840.317 352 C 842.253 352, 847.979 345.447, 847.989 343.219 C 847.996 341.846, 849.593 339.473, 852 337.260 C 854.660 334.814, 856 332.728, 856 331.032 C 856 329.539, 856.855 327.947, 858.062 327.193 C 859.490 326.301, 860.028 325.075, 859.812 323.203 C 859.593 321.308, 860.098 320.188, 861.500 319.457 C 862.871 318.742, 863.497 317.406, 863.490 315.207 C 863.485 313.443, 863.887 312, 864.384 312 C 866.406 312, 871.979 305.398, 871.989 302.991 C 871.996 301.529, 872.881 299.931, 874.110 299.164 C 875.753 298.137, 876.090 297.201, 875.635 294.923 C 875.267 293.086, 875.466 292, 876.169 292 C 878.361 292, 883.979 285.529, 883.989 282.991 C 883.996 281.529, 884.881 279.931, 886.110 279.164 C 887.753 278.137, 888.090 277.201, 887.635 274.923 C 887.313 273.315, 887.407 272, 887.843 272 C 888.280 272, 890.354 270.472, 892.453 268.605 C 895.555 265.845, 896.152 264.744, 895.644 262.719 C 895.156 260.775, 895.455 260.114, 897.005 259.709 C 902.090 258.379, 899.803 252.389, 894.607 253.429 C 892.954 253.759, 834.654 253.915, 765.051 253.775 C 695.448 253.636, 616.049 253.517, 588.609 253.511 C 530.461 253.498, 532.900 253.031, 542.259 262.390 C 545.369 265.500, 548.770 268, 549.889 268 C 552.010 268, 556.277 271.674, 557.323 274.400 C 557.692 275.361, 559.103 276, 560.858 276 C 563.287 276, 566.245 278.465, 578.390 290.610 C 588.272 300.492, 593 305.926, 593 307.401 C 593 308.666, 594.680 311.127, 597 313.260 C 599.463 315.524, 601 317.830, 601 319.260 C 601 320.690, 602.537 322.996, 605 325.260 C 607.638 327.685, 609 329.797, 609 331.460 C 609 332.900, 609.859 334.519, 611 335.232 C 612.213 335.989, 613 337.564, 613 339.232 C 613 340.900, 613.787 342.475, 615 343.232 C 616.213 343.989, 617 345.564, 617 347.232 C 617 348.900, 617.787 350.475, 619 351.232 C 620.544 352.196, 621 353.564, 621 357.232 C 621 360.900, 621.456 362.268, 623 363.232 C 624.679 364.281, 625 365.564, 625 371.232 C 625 376.900, 625.321 378.183, 627 379.232 C 628.923 380.433, 629 381.564, 629 408.500 C 629 435.641, 628.936 436.559, 626.955 437.796 C 625.170 438.911, 624.948 439.926, 625.205 445.786 C 625.463 451.660, 625.250 452.628, 623.500 453.523 C 622.350 454.112, 621.357 455.797, 621.163 457.490 C 620.977 459.109, 619.965 461.037, 618.913 461.774 C 617.831 462.531, 617 464.288, 617 465.816 C 617 467.436, 616.199 469.019, 615 469.768 C 613.479 470.718, 613 472.100, 613 475.540 C 613 479.536, 612.535 480.490, 609 483.740 C 606.624 485.925, 605 488.325, 605 489.653 C 605 491.123, 602.265 494.578, 597 499.760 C 592.200 504.483, 589 508.446, 589 509.666 C 589 512.647, 576.806 524.999, 573.857 525.005 C 572.288 525.008, 569.571 527.014, 565.731 531.005 C 562.002 534.881, 559.159 537, 557.690 537 C 556.319 537, 553.960 538.586, 551.740 541 C 549.315 543.638, 547.203 545, 545.540 545 C 544.100 545, 542.481 545.859, 541.768 547 C 540.804 548.544, 539.436 549, 535.768 549 C 532.100 549, 530.732 549.456, 529.768 551 C 529.011 552.213, 527.436 553, 525.768 553 C 524.100 553, 522.525 553.787, 521.768 555 C 520.719 556.679, 519.436 557, 513.768 557 C 508.100 557, 506.817 557.321, 505.768 559 C 504.567 560.923, 503.436 561, 476.500 561 C 449.564 561, 448.433 560.923, 447.232 559 C 446.138 557.248, 444.900 557, 437.232 557 C 429.564 557, 428.327 556.752, 427.232 555 C 426.268 553.456, 424.900 553, 421.232 553 C 417.564 553, 416.196 552.544, 415.232 551 C 414.475 549.787, 412.900 549, 411.232 549 C 409.564 549, 407.989 548.213, 407.232 547 C 406.475 545.787, 404.900 545, 403.232 545 C 401.564 545, 399.989 544.213, 399.232 543 C 398.475 541.787, 396.900 541, 395.232 541 C 393.564 541, 391.989 540.213, 391.232 539 C 390.519 537.859, 388.900 537, 387.460 537 C 385.797 537, 383.685 535.638, 381.260 533 C 379.122 530.674, 376.667 529, 375.396 529 C 372.421 529, 352.002 508.620, 351.995 505.645 C 351.992 504.335, 349.656 501.254, 345.995 497.731 C 341.840 493.733, 340 491.204, 340 489.490 C 340 488.100, 339.124 486.470, 338 485.768 C 336.787 485.011, 336 483.436, 336 481.768 C 336 480.100, 335.213 478.525, 334 477.768 C 332.787 477.011, 332 475.436, 332 473.768 C 332 472.100, 331.213 470.525, 330 469.768 C 328.787 469.011, 328 467.436, 328 465.768 C 328 464.100, 327.213 462.525, 326 461.768 C 324.456 460.804, 324 459.436, 324 455.768 C 324 452.100, 323.544 450.732, 322 449.768 C 320.321 448.719, 320 447.436, 320 441.768 C 320 436.100, 319.679 434.817, 318 433.768 C 316.060 432.556, 316 431.436, 316 396.500 C 316 361.564, 316.060 360.444, 318 359.232 C 319.544 358.268, 320 356.900, 320 353.232 C 320 349.564, 320.456 348.196, 322 347.232 C 323.544 346.268, 324 344.900, 324 341.232 C 324 337.564, 324.456 336.196, 326 335.232 C 327.141 334.519, 328 332.900, 328 331.460 C 328 329.797, 329.362 327.685, 332 325.260 C 334.463 322.996, 336 320.690, 336 319.260 C 336 317.830, 337.537 315.524, 340 313.260 C 342.316 311.130, 344 308.666, 344 307.404 C 344 304.193, 380.377 268, 383.605 268 C 384.913 268, 386.545 267.100, 387.232 266 C 387.953 264.846, 389.564 264, 391.041 264 C 392.448 264, 394.140 263.460, 394.800 262.800 C 396.350 261.250, 396.350 255.750, 394.800 254.200 C 393.054 252.454, 39.946 252.454, 38.200 254.200" fill="currentColor" fill-rule="evenodd"/></g><g transform="translate(147.0 16.0) scale(0.21622)"><path d="M 556.561 1.840 C 557.628 2.852, 560.570 5.890, 563.100 8.590 C 568.356 14.200, 573.284 18, 575.305 18 C 576.067 18, 577.505 17.100, 578.500 16 C 579.495 14.900, 581.175 14, 582.232 14 C 584.492 14, 589.440 9.339, 590.404 6.302 C 590.775 5.135, 591.735 3.635, 592.539 2.968 C 593.342 2.301, 594 1.360, 594 0.878 C 594 0.395, 585.140 -0, 574.311 -0 C 555.158 -0, 554.676 0.050, 556.561 1.840 M 206.306 57.801 C 204.499 60.245, 204.411 60.842, 205.618 62.492 C 206.378 63.531, 207 65.538, 207 66.951 C 207 68.436, 207.843 70.046, 209 70.768 C 210.100 71.455, 211 73.068, 211 74.353 C 211 75.639, 211.900 77.505, 213 78.500 C 214.100 79.495, 215 80.957, 215 81.747 C 215 82.538, 215.900 84.329, 217 85.727 C 218.100 87.126, 219 89.186, 219 90.306 C 219 91.426, 219.713 93.131, 220.585 94.094 C 221.456 95.057, 222.424 97.792, 222.734 100.172 C 223.045 102.553, 224.131 105.573, 225.149 106.885 C 226.167 108.197, 227 110.279, 227 111.512 C 227 112.746, 227.640 114.286, 228.422 114.935 C 229.204 115.584, 230.161 118.002, 230.550 120.308 C 230.938 122.613, 232.098 125.573, 233.128 126.885 C 234.158 128.197, 235.003 130.447, 235.007 131.885 C 235.010 133.323, 235.907 135.850, 237 137.500 C 238.093 139.150, 238.990 141.443, 238.993 142.595 C 238.997 143.747, 239.900 145.505, 241 146.500 C 242.100 147.495, 243 149.182, 243 150.247 C 243 152.799, 245.991 156.504, 250.545 159.595 C 253.581 161.655, 255.203 162.041, 259.804 161.797 C 265.216 161.509, 265.407 161.400, 266.253 158.120 C 266.732 156.260, 267.728 153.785, 268.464 152.620 C 269.201 151.454, 270.107 149.043, 270.479 147.261 C 270.850 145.480, 271.588 143.755, 272.118 143.427 C 273.409 142.629, 279 130.714, 279 128.760 C 279 127.910, 279.675 126.955, 280.500 126.638 C 281.352 126.311, 282 124.821, 282 123.186 C 282 121.580, 282.883 119.511, 284 118.500 C 285.100 117.505, 286.002 115.747, 286.004 114.595 C 286.006 113.443, 286.854 111.113, 287.888 109.417 C 288.922 107.721, 290.074 104.939, 290.448 103.236 C 290.822 101.532, 291.728 99.641, 292.460 99.033 C 293.192 98.426, 294.075 96.415, 294.422 94.565 C 294.769 92.715, 295.716 90.651, 296.526 89.978 C 297.337 89.305, 298 87.934, 298 86.930 C 298 85.927, 299.125 82.990, 300.500 80.404 C 301.875 77.818, 303 74.924, 303 73.974 C 303 73.023, 303.675 71.685, 304.500 71 C 305.325 70.315, 306 68.486, 306 66.934 C 306 65.212, 306.809 63.547, 308.076 62.659 C 309.534 61.638, 310.055 60.355, 309.826 58.352 C 309.508 55.574, 309.330 55.492, 302.942 55.209 C 297.387 54.962, 296.102 55.229, 294.537 56.959 C 293.502 58.103, 291.439 59, 289.845 59 C 287.110 59, 287 59.187, 287 63.845 C 287 67.420, 286.476 69.164, 285 70.500 C 283.900 71.495, 283 73.164, 283 74.207 C 283 75.250, 282.125 77.768, 281.056 79.802 C 276.703 88.081, 275 92.178, 275 94.376 C 275 95.649, 274.100 97.505, 273 98.500 C 271.685 99.690, 271 101.580, 271 104.020 C 271 106.115, 270.190 108.769, 269.141 110.115 C 268.118 111.427, 266.971 114.601, 266.592 117.168 C 266.212 119.736, 265.249 122.378, 264.451 123.041 C 263.653 123.703, 262.984 125.427, 262.965 126.872 C 262.945 128.318, 262.376 130.495, 261.701 131.710 L 260.472 133.920 257.236 131.388 C 255.332 129.897, 254 127.947, 254 126.650 C 254 125.437, 253.100 123.674, 252 122.732 C 250.731 121.645, 250 119.782, 250 117.632 C 250 115.769, 249.337 113.695, 248.526 113.022 C 247.716 112.349, 246.748 110.157, 246.376 108.150 C 246.003 106.142, 245.124 103.600, 244.423 102.500 C 243.722 101.400, 242.833 98.700, 242.447 96.500 C 242.062 94.300, 241.179 91.825, 240.485 91 C 239.791 90.175, 238.899 87.977, 238.502 86.116 C 238.106 84.255, 236.941 80.880, 235.913 78.616 C 234.885 76.352, 234.034 73.240, 234.022 71.700 C 234.010 70.161, 233.338 67.620, 232.529 66.055 C 231.719 64.490, 230.762 61.363, 230.401 59.105 L 229.744 55 219.060 55 C 208.518 55, 208.349 55.037, 206.306 57.801 M 696.070 56.416 C 695.377 57.251, 695.019 60.225, 695.198 63.666 L 695.500 69.500 702.324 70 C 708.915 70.483, 711.689 69.869, 713.235 67.585 C 714.423 65.830, 714.105 57.505, 712.800 56.200 C 711.038 54.438, 697.567 54.612, 696.070 56.416 M 647.823 66.709 C 643.790 67.326, 643.022 68.980, 642.897 77.314 C 642.830 81.741, 642.296 85.340, 641.621 85.899 C 640.983 86.429, 638.445 87.006, 635.980 87.181 C 631.902 87.471, 631.471 87.752, 631.177 90.315 C 630.808 93.533, 633.092 97.577, 635.757 98.423 C 639.889 99.734, 641 103.997, 641 118.539 C 641 134.267, 642.512 144.681, 645.174 147.289 C 646.178 148.273, 647 149.916, 647 150.940 C 647 152.518, 651.754 156.389, 655.500 157.861 C 656.050 158.078, 657.525 159.187, 658.777 160.327 C 660.878 162.239, 662.149 162.385, 675.276 162.219 C 687.494 162.065, 689.677 161.795, 690.768 160.303 C 691.972 158.657, 692.215 158.661, 695.415 160.384 C 697.697 161.613, 701.177 162.251, 706.146 162.351 L 713.500 162.500 714.331 140.500 C 715.368 113.064, 714.417 86.560, 712.321 84.463 C 710.378 82.521, 701.754 82.559, 697.950 84.526 L 695 86.051 695 115.326 C 695 145.835, 694.842 147, 690.708 147 C 689.667 147, 687.671 147.900, 686.273 149 C 684.386 150.485, 682.216 151, 677.855 151 C 673.218 151, 671.620 150.579, 670.268 149 C 669.326 147.900, 668.050 147, 667.433 147 C 665.396 147, 662.892 143.276, 661.616 138.351 C 660.307 133.294, 660.255 109.744, 661.540 103.733 C 662.614 98.709, 663.477 98.227, 671.606 98.105 C 679.814 97.981, 682.531 97.054, 683.484 94.051 C 684.297 91.490, 681.611 86.393, 679.103 85.737 C 678.016 85.453, 674.285 85.439, 670.813 85.707 C 665.334 86.130, 664.038 85.879, 661 83.807 C 657.511 81.427, 657.501 81.399, 657.841 74.720 C 658.169 68.255, 658.088 67.984, 655.525 67.010 C 654.065 66.454, 652.337 66.067, 651.685 66.150 C 651.033 66.232, 649.295 66.484, 647.823 66.709 M 332.016 85.057 C 330.099 86.126, 327.624 87.002, 326.516 87.004 C 323.763 87.009, 318.609 90.284, 316.357 93.458 C 315.336 94.898, 312.868 98.196, 310.873 100.788 C 308.183 104.282, 307.052 106.922, 306.499 111 C 306.088 114.025, 305.132 117.388, 304.376 118.473 C 302.418 121.280, 302.685 126.005, 305 129.500 C 306.098 131.157, 306.990 134.192, 306.993 136.279 C 306.998 139.173, 307.938 141.245, 311 145.119 C 313.200 147.902, 315 150.584, 315 151.077 C 315 152.454, 322.909 157.282, 328.500 159.318 C 336.767 162.329, 342.878 163.041, 355.857 162.506 C 366.880 162.052, 368.500 161.751, 370.857 159.713 C 383.134 149.104, 384.142 147.067, 379.329 142.604 C 376.917 140.368, 376.457 140.267, 374.606 141.563 C 373.478 142.354, 371.714 143, 370.685 143 C 369.657 143, 367.671 143.900, 366.273 145 C 364.874 146.100, 363.039 147, 362.194 147 C 361.349 147, 359.809 147.768, 358.772 148.706 C 357.560 149.803, 354.672 150.553, 350.690 150.807 C 345.369 151.146, 344.224 150.905, 342.591 149.101 C 341.546 147.945, 339.770 147, 338.646 147 C 335.653 147, 327.603 137.957, 326.085 132.889 C 324.996 129.254, 325.024 128.456, 326.272 127.543 C 327.224 126.847, 336.340 126.475, 352.214 126.485 C 372.199 126.497, 377.011 126.768, 378.452 127.962 C 381.621 130.588, 382.888 127.114, 382.650 116.454 C 382.468 108.331, 382.148 106.786, 380.220 104.734 C 378.999 103.435, 378 101.988, 378 101.519 C 378 99.187, 364.948 87, 362.450 87 C 361.273 87, 359.495 86.100, 358.500 85 C 356.900 83.232, 355.462 83.007, 346.095 83.057 C 337.541 83.104, 334.829 83.489, 332.016 85.057 M 479.441 84.467 C 478.374 85.274, 475.352 86.233, 472.727 86.599 C 468.413 87.200, 467.122 88.089, 459.296 95.845 L 450.637 104.425 449.999 113.463 C 448.854 129.676, 449.408 137.027, 452.242 143.217 C 454.840 148.892, 463.264 157.984, 465.934 157.994 C 466.723 157.997, 469.198 158.874, 471.434 159.943 C 477.267 162.730, 495.348 164.271, 501.726 162.524 C 510.471 160.129, 515.717 157.090, 520.903 151.415 C 523.707 148.348, 526 145.443, 526 144.958 C 526 144.474, 526.836 143.273, 527.858 142.289 C 528.880 141.305, 529.986 138.757, 530.315 136.626 C 530.645 134.495, 531.609 131.985, 532.457 131.047 C 534.435 128.862, 534.539 117.955, 532.618 114.200 C 531.858 112.715, 530.919 109.588, 530.530 107.251 C 530.142 104.913, 529.279 102.663, 528.612 102.251 C 527.946 101.838, 526.121 99.286, 524.558 96.580 C 521.211 90.786, 517.298 87.076, 514.485 87.032 C 513.377 87.014, 510.791 86.100, 508.739 85 C 505.611 83.323, 503.097 83, 493.195 83 C 484.361 83, 480.893 83.370, 479.441 84.467 M 579.191 84.269 C 578.491 85.113, 576.699 86.108, 575.209 86.480 C 573.719 86.852, 571.824 87.764, 570.998 88.508 C 570.172 89.252, 568.268 90.328, 566.766 90.899 C 564.456 91.777, 563.876 91.636, 562.989 89.979 C 561.501 87.200, 556.743 84.907, 554.941 86.100 C 554.148 86.625, 551.250 86.930, 548.500 86.777 L 543.500 86.500 543.714 140 L 543.928 193.500 552.714 193.500 L 561.500 193.500 562.250 186 C 562.662 181.875, 563.112 174.237, 563.250 169.028 C 563.487 160.051, 563.630 159.490, 565.987 158.317 C 568.199 157.216, 568.779 157.372, 571.235 159.725 C 573.960 162.336, 574.197 162.372, 588.768 162.436 C 602.622 162.496, 603.717 162.360, 606.405 160.250 C 607.980 159.012, 609.772 157.988, 610.385 157.973 C 612.989 157.910, 618.199 151.949, 622.160 144.500 L 626.415 136.500 626.457 123 C 626.498 110.219, 626.346 109.154, 623.601 103 C 622.006 99.425, 619.899 95.466, 618.918 94.201 C 616.168 90.655, 610.209 87, 607.178 87 C 605.675 87, 603.419 86.281, 602.164 85.402 C 598.788 83.038, 580.944 82.157, 579.191 84.269 M 767.393 85.326 C 765.134 86.522, 762.659 88.007, 761.893 88.628 C 758.863 91.081, 756.373 91.075, 753.713 88.610 C 752.276 87.278, 749.500 85.660, 747.544 85.015 C 744.533 84.021, 743.414 84.121, 740.244 85.670 L 736.500 87.500 736.344 111 C 736.258 123.925, 736.033 140.575, 735.844 148 L 735.500 161.500 744.964 161.500 L 754.428 161.500 754.553 137.485 C 754.677 113.618, 754.694 113.446, 757.207 109.463 C 760.240 104.660, 768.092 98, 770.723 98 C 772.689 98, 779.533 102.133, 784.233 106.159 L 786.966 108.500 787.188 134.297 C 787.348 152.886, 787.744 160.373, 788.608 161.090 C 789.267 161.636, 793.562 161.953, 798.153 161.792 L 806.500 161.500 807.008 138.500 C 807.461 117.962, 807.728 115.118, 809.508 111.927 C 812.608 106.367, 815.355 103.337, 818.038 102.516 C 819.392 102.102, 821.251 101.105, 822.168 100.301 C 823.086 99.496, 825.986 98.762, 828.613 98.669 C 832.471 98.532, 833.595 98.885, 834.457 100.500 C 835.044 101.600, 836.419 103.830, 837.512 105.456 C 839.359 108.202, 839.513 110.292, 839.680 134.956 L 839.859 161.500 848.180 162.141 C 852.756 162.493, 856.775 162.618, 857.111 162.418 C 858.379 161.663, 858.873 142.750, 858.154 122.500 C 857.483 103.626, 857.181 101.044, 855.167 97 C 852.536 91.717, 846.794 87, 842.994 87 C 841.518 87, 839.495 86.100, 838.500 85 C 836.973 83.313, 835.420 83, 828.572 83 C 820.957 83, 820.115 83.221, 814.977 86.566 C 811.965 88.527, 808.240 91.452, 806.699 93.066 C 805.159 94.679, 803.211 96, 802.371 96 C 801.531 96, 798.950 93.967, 796.636 91.483 C 792.764 87.324, 792.273 87.080, 790.465 88.406 C 788.821 89.612, 788.255 89.629, 787 88.510 C 785.560 87.225, 773.896 82.919, 772.282 83.076 C 771.852 83.118, 769.652 84.130, 767.393 85.326 M 903.500 84.702 C 901.300 85.489, 897.250 86.386, 894.500 86.694 C 887.446 87.484, 883 91.711, 883 97.629 C 883 100.878, 883.433 102.003, 884.857 102.455 C 885.878 102.779, 887.157 104.037, 887.699 105.251 L 888.684 107.459 889.877 105.229 C 890.587 103.903, 892.014 103, 893.400 103 C 894.682 103, 896.973 102.022, 898.492 100.827 C 900.624 99.151, 903.021 98.552, 908.986 98.207 C 915.823 97.811, 916.879 97.986, 918.109 99.721 C 918.874 100.800, 920.519 102.223, 921.765 102.884 C 923.948 104.043, 929 111.011, 929 112.863 C 929 114.539, 924.755 114.893, 920.614 113.561 C 915.880 112.040, 909.833 112.236, 898.500 114.279 C 887.410 116.279, 885.438 117.338, 877.770 125.413 L 871.040 132.500 871.020 139.382 C 871.005 144.561, 871.499 147.071, 873.016 149.525 C 875.034 152.791, 881.047 158, 882.798 158 C 883.311 158, 884.830 158.865, 886.174 159.922 C 888.262 161.565, 890.605 161.889, 902.256 162.147 C 914.642 162.422, 916.104 162.268, 918.196 160.475 C 919.463 159.389, 921.502 157.940, 922.727 157.256 C 924.742 156.130, 925.102 156.297, 926.503 159.006 L 928.051 162 939.026 162 L 950 162 950 134.559 C 950 119.387, 949.598 106.869, 949.100 106.562 C 948.606 106.256, 947.673 103.805, 947.027 101.114 C 945.448 94.529, 938.602 87.512, 932.862 86.594 C 930.661 86.242, 927.878 85.316, 926.680 84.536 C 923.806 82.667, 908.886 82.774, 903.500 84.702 M 429.500 86.435 C 416.051 94.510, 416.660 94.256, 415.276 92.363 C 414.574 91.403, 414 90.061, 414 89.380 C 414 87.650, 403.753 85.697, 398.943 86.510 L 394.976 87.180 395.238 124.340 L 395.500 161.500 402 162 C 405.575 162.275, 409.672 162.346, 411.104 162.158 L 413.707 161.816 414.416 138.658 C 415.084 116.858, 415.263 115.264, 417.468 111.483 C 419.364 108.233, 420.833 107.117, 425.156 105.643 C 428.095 104.640, 433.518 103.520, 437.207 103.153 C 440.896 102.786, 444.406 101.994, 445.008 101.392 C 445.643 100.757, 445.976 97.621, 445.802 93.936 C 445.501 87.606, 445.483 87.571, 442.157 86.895 C 440.319 86.521, 438.316 85.716, 437.707 85.107 C 436.039 83.439, 433.918 83.782, 429.500 86.435 M 338.423 97.840 C 335.423 98.371, 326 108.093, 326 110.657 C 326 111.881, 326.440 113.154, 326.978 113.486 C 327.516 113.819, 335.352 114.276, 344.391 114.502 C 357.860 114.839, 361.044 114.652, 362.025 113.469 C 363.774 111.363, 362.564 108.093, 358.158 103.020 C 354.381 98.670, 354.066 98.525, 347.307 98.020 C 343.479 97.734, 339.481 97.653, 338.423 97.840 M 479.327 102.872 C 476.547 105.551, 473.029 110.285, 471.509 113.391 C 469.990 116.497, 468.353 119.282, 467.873 119.578 C 466.066 120.695, 466.921 131.751, 469.099 135.443 C 470.253 137.399, 471.491 139.002, 471.849 139.005 C 472.207 139.007, 474.092 140.470, 476.037 142.255 C 481.848 147.586, 485.012 149.236, 489.311 149.176 C 503.918 148.975, 512.167 139.877, 513.774 122.197 C 514.402 115.290, 512.157 110.127, 505.544 103.273 L 500.500 98.046 492.441 98.023 L 484.381 98 479.327 102.872 M 578.586 99.905 C 577.543 101.057, 576.165 102, 575.523 102 C 572.952 102, 566.688 107.846, 565.255 111.583 C 564.430 113.737, 563.605 119.022, 563.423 123.326 C 563.093 131.137, 563.101 131.164, 567.399 137.326 C 569.768 140.722, 573.607 144.963, 575.931 146.750 C 579.661 149.619, 580.888 150, 586.405 150 C 592.374 150, 592.858 149.810, 597.217 145.750 C 602.894 140.463, 605.623 135.122, 606.976 126.650 C 608.117 119.505, 607.305 113.640, 604.602 109.515 C 603.721 108.170, 603 106.433, 603 105.654 C 603 104.875, 601.313 102.947, 599.250 101.370 C 596.038 98.913, 594.423 98.452, 587.991 98.156 C 581.386 97.852, 580.253 98.062, 578.586 99.905 M 906 122.845 C 904.625 123.252, 901.424 124.535, 898.886 125.698 C 894.467 127.723, 894.253 128.017, 893.807 132.656 C 892.974 141.337, 893.841 144.642, 897.732 147.609 C 900.858 149.994, 902.095 150.287, 908.721 150.219 C 917.221 150.131, 918.187 149.558, 923.610 141.396 C 926.321 137.315, 927 135.300, 927 131.338 C 927 123.967, 925.904 123.049, 916.500 122.540 C 912.100 122.302, 907.375 122.439, 906 122.845" fill="currentColor" fill-rule="evenodd"/></g></svg>
