<svg xmlns="http://www.w3.org/2000/svg" viewBox="0 0 1120 860" role="img" aria-label="Veroptima"><path d="M 38.200 254.200 C 37.540 254.860, 37 257.781, 37 260.692 C 37 264.900, 37.409 266.239, 39 267.232 C 40.151 267.951, 41 269.564, 41 271.032 C 41 272.728, 42.340 274.814, 45 277.260 C 47.463 279.524, 49 281.830, 49 283.260 C 49 284.690, 50.537 286.996, 53 289.260 C 55.995 292.014, 57 293.707, 57 296 C 57 297.840, 57.617 299.300, 58.546 299.656 C 61.553 300.810, 69 309.154, 69 311.370 C 69 312.671, 70.647 315.097, 73 317.260 C 75.638 319.685, 77 321.797, 77 323.460 C 77 324.900, 77.859 326.519, 79 327.232 C 80.151 327.951, 81 329.564, 81 331.032 C 81 332.728, 82.340 334.814, 85 337.260 C 87.638 339.685, 89 341.797, 89 343.460 C 89 344.900, 89.859 346.519, 91 347.232 C 92.151 347.951, 93 349.564, 93 351.032 C 93 352.728, 94.340 354.814, 97 357.260 C 99.463 359.524, 101 361.830, 101 363.260 C 101 364.690, 102.537 366.996, 105 369.260 C 107.463 371.524, 109 373.830, 109 375.260 C 109 376.690, 110.537 378.996, 113 381.260 C 115.995 384.014, 117 385.707, 117 388 C 117 389.885, 117.615 391.299, 118.600 391.677 C 121.439 392.766, 125 397.028, 125 399.337 C 125 400.677, 126.613 403.065, 129 405.260 C 131.638 407.685, 133 409.797, 133 411.460 C 133 412.900, 133.859 414.519, 135 415.232 C 136.151 415.951, 137 417.564, 137 419.032 C 137 420.728, 138.340 422.814, 141 425.260 C 143.463 427.524, 145 429.830, 145 431.260 C 145 432.690, 146.537 434.996, 149 437.260 C 151.995 440.014, 153 441.707, 153 444 C 153 445.885, 153.615 447.299, 154.600 447.677 C 157.439 448.766, 161 453.028, 161 455.337 C 161 456.677, 162.613 459.065, 165 461.260 C 167.995 464.014, 169 465.707, 169 468 C 169 469.885, 169.615 471.299, 170.600 471.677 C 173.858 472.927, 177 477.081, 177 480.139 C 177 482.346, 177.552 483.332, 179 483.710 C 180.100 483.998, 181 484.898, 181 485.710 C 181 486.523, 181.900 487.423, 183 487.710 C 184.507 488.104, 185 489.074, 185 491.648 C 185 493.856, 185.566 495.280, 186.600 495.677 C 189.823 496.914, 193 501.083, 193 504.077 C 193 505.891, 193.628 507.304, 194.600 507.677 C 197.823 508.914, 201 513.083, 201 516.077 C 201 517.891, 201.628 519.304, 202.600 519.677 C 205.439 520.766, 209 525.028, 209 527.337 C 209 528.677, 210.613 531.065, 213 533.260 C 215.638 535.685, 217 537.797, 217 539.460 C 217 540.900, 217.859 542.519, 219 543.232 C 220.342 544.070, 221 545.564, 221 547.772 C 221 549.866, 221.582 551.286, 222.600 551.677 C 225.858 552.927, 229 557.081, 229 560.139 C 229 562.297, 229.557 563.333, 230.908 563.686 C 231.957 563.960, 233.040 565.043, 233.314 566.092 C 233.588 567.142, 234.530 568, 235.406 568 C 236.484 568, 237 568.904, 237 570.791 C 237 572.768, 238.167 574.655, 241 577.260 C 244.029 580.045, 245 581.697, 245 584.063 C 245 586.296, 245.544 587.330, 246.908 587.686 C 247.957 587.960, 249.040 589.043, 249.314 590.092 C 249.588 591.142, 250.530 592, 251.406 592 C 252.564 592, 253 592.967, 253 595.531 C 253 597.846, 253.551 599.274, 254.600 599.677 C 257.439 600.766, 261 605.028, 261 607.337 C 261 608.677, 262.613 611.065, 265 613.260 C 267.995 616.014, 269 617.707, 269 620 C 269 621.885, 269.615 623.299, 270.600 623.677 C 273.823 624.914, 277 629.083, 277 632.077 C 277 633.891, 277.628 635.304, 278.600 635.677 C 281.439 636.766, 285 641.028, 285 643.337 C 285 644.677, 286.613 647.065, 289 649.260 C 291.995 652.014, 293 653.707, 293 656 C 293 657.885, 293.615 659.299, 294.600 659.677 C 297.439 660.766, 301 665.028, 301 667.337 C 301 668.677, 302.613 671.065, 305 673.260 C 307.995 676.014, 309 677.707, 309 680 C 309 681.885, 309.615 683.299, 310.600 683.677 C 313.823 684.914, 317 689.083, 317 692.077 C 317 693.891, 317.628 695.304, 318.600 695.677 C 321.823 696.914, 325 701.083, 325 704.077 C 325 705.891, 325.628 707.304, 326.600 707.677 C 329.858 708.927, 333 713.081, 333 716.139 C 333 718.346, 333.552 719.332, 335 719.710 C 336.371 720.069, 337 721.074, 337 722.908 C 337 724.748, 338.247 726.729, 341 729.260 C 343.463 731.524, 345 733.830, 345 735.260 C 345 736.690, 346.537 738.996, 349 741.260 C 351.638 743.685, 353 745.797, 353 747.460 C 353 748.900, 353.859 750.519, 355 751.232 C 356.342 752.070, 357 753.564, 357 755.772 C 357 757.866, 357.582 759.286, 358.600 759.677 C 361.439 760.766, 365 765.028, 365 767.337 C 365 768.677, 366.613 771.065, 369 773.260 C 371.463 775.524, 373 777.830, 373 779.260 C 373 780.690, 374.537 782.996, 377 785.260 C 379.463 787.524, 381 789.830, 381 791.260 C 381 792.690, 382.537 794.996, 385 797.260 C 387.463 799.524, 389 801.830, 389 803.260 C 389 804.690, 390.537 806.996, 393 809.260 C 395.638 811.685, 397 813.797, 397 815.460 C 397 816.900, 397.859 818.519, 399 819.232 C 400.151 819.951, 401 821.564, 401 823.032 C 401 824.728, 402.340 826.814, 405 829.260 C 407.995 832.014, 409 833.707, 409 836 C 409 837.840, 409.617 839.300, 410.546 839.656 C 413.741 840.882, 421 849.155, 421 851.570 C 421 852.900, 421.898 854.544, 423 855.232 C 424.100 855.919, 425 857.273, 425 858.241 C 425 859.897, 428.014 860, 476.500 860 L 528 860 528 856.469 C 528 853.629, 528.783 852.218, 532 849.260 C 534.660 846.814, 536 844.728, 536 843.032 C 536 841.564, 536.849 839.951, 538 839.232 C 539.141 838.519, 540 836.900, 540 835.460 C 540 833.797, 541.362 831.685, 544 829.260 C 546.463 826.996, 548 824.690, 548 823.260 C 548 821.830, 549.537 819.524, 552 817.260 C 554.660 814.814, 556 812.728, 556 811.032 C 556 809.564, 556.849 807.951, 558 807.232 C 559.141 806.519, 560 804.900, 560 803.460 C 560 801.797, 561.362 799.685, 564 797.260 C 566.660 794.814, 568 792.728, 568 791.032 C 568 789.564, 568.849 787.951, 570 787.232 C 571.213 786.475, 572 784.900, 572 783.232 C 572 781.564, 572.787 779.989, 574 779.232 C 575.141 778.519, 576 776.900, 576 775.460 C 576 773.797, 577.362 771.685, 580 769.260 C 582.463 766.996, 584 764.690, 584 763.260 C 584 761.830, 585.537 759.524, 588 757.260 C 590.660 754.814, 592 752.728, 592 751.032 C 592 749.564, 592.849 747.951, 594 747.232 C 595.124 746.530, 596 744.900, 596 743.510 C 596 741.796, 597.840 739.267, 601.995 735.269 C 606.189 731.234, 607.992 728.746, 607.995 726.991 C 607.998 725.568, 608.866 723.940, 610 723.232 C 611.141 722.519, 612 720.900, 612 719.460 C 612 717.797, 613.362 715.685, 616 713.260 C 618.463 710.996, 620 708.690, 620 707.260 C 620 705.830, 621.537 703.524, 624 701.260 C 626.463 698.996, 628 696.690, 628 695.260 C 628 693.830, 629.537 691.524, 632 689.260 C 634.660 686.814, 636 684.728, 636 683.032 C 636 681.564, 636.849 679.951, 638 679.232 C 639.141 678.519, 640 676.900, 640 675.460 C 640 673.797, 641.362 671.685, 644 669.260 C 646.463 666.996, 648 664.690, 648 663.260 C 648 661.830, 649.537 659.524, 652 657.260 C 654.463 654.996, 656 652.690, 656 651.260 C 656 649.830, 657.537 647.524, 660 645.260 C 662.463 642.996, 664 640.690, 664 639.260 C 664 637.830, 665.537 635.524, 668 633.260 C 670.660 630.814, 672 628.728, 672 627.032 C 672 625.564, 672.849 623.951, 674 623.232 C 675.213 622.475, 676 620.900, 676 619.232 C 676 617.564, 676.787 615.989, 678 615.232 C 679.141 614.519, 680 612.900, 680 611.460 C 680 609.797, 681.362 607.685, 684 605.260 C 686.660 602.814, 688 600.728, 688 599.032 C 688 597.564, 688.849 595.951, 690 595.232 C 691.141 594.519, 692 592.900, 692 591.460 C 692 589.797, 693.362 587.685, 696 585.260 C 698.660 582.814, 700 580.728, 700 579.032 C 700 577.564, 700.849 575.951, 702 575.232 C 703.141 574.519, 704 572.900, 704 571.460 C 704 569.797, 705.362 567.685, 708 565.260 C 710.463 562.996, 712 560.690, 712 559.260 C 712 557.830, 713.537 555.524, 716 553.260 C 718.660 550.814, 720 548.728, 720 547.032 C 720 545.523, 720.859 543.945, 722.103 543.168 C 723.673 542.187, 724.097 541.113, 723.776 538.927 C 723.528 537.241, 723.803 535.995, 724.423 535.989 C 726.455 535.969, 732 529.306, 732 526.884 C 732 525.522, 732.914 523.910, 734.110 523.164 C 735.753 522.137, 736.090 521.201, 735.635 518.923 C 735.313 517.315, 735.407 516, 735.843 516 C 737.776 516, 744 509.280, 744 507.194 C 744 505.842, 745.603 503.464, 748 501.260 C 750.463 498.996, 752 496.690, 752 495.260 C 752 493.830, 753.537 491.524, 756 489.260 C 758.463 486.996, 760 484.690, 760 483.260 C 760 481.830, 761.537 479.524, 764 477.260 C 766.463 474.996, 768 472.690, 768 471.260 C 768 469.830, 769.537 467.524, 772 465.260 C 774.660 462.814, 776 460.728, 776 459.032 C 776 457.564, 776.849 455.951, 778 455.232 C 779.141 454.519, 780 452.900, 780 451.460 C 780 449.797, 781.362 447.685, 784 445.260 C 786.660 442.814, 788 440.728, 788 439.032 C 788 437.523, 788.859 435.945, 790.103 435.168 C 791.673 434.187, 792.097 433.113, 791.776 430.927 C 791.528 429.241, 791.803 427.995, 792.423 427.989 C 793.015 427.983, 795.017 426.418, 796.870 424.510 C 799.402 421.904, 800.121 420.414, 799.759 418.520 C 799.494 417.134, 799.730 416, 800.282 416 C 802.385 416, 807.979 409.460, 807.989 406.991 C 807.996 405.532, 808.880 403.931, 810.103 403.168 C 811.673 402.187, 812.097 401.113, 811.776 398.927 C 811.540 397.317, 811.783 396, 812.317 396 C 814.253 396, 819.979 389.447, 819.989 387.219 C 819.996 385.846, 821.593 383.473, 824 381.260 C 826.463 378.996, 828 376.690, 828 375.260 C 828 373.830, 829.537 371.524, 832 369.260 C 834.660 366.814, 836 364.728, 836 363.032 C 836 361.523, 836.859 359.945, 838.103 359.168 C 839.673 358.187, 840.097 357.113, 839.776 354.927 C 839.540 353.317, 839.783 352, 840.317 352 C 842.253 352, 847.979 345.447, 847.989 343.219 C 847.996 341.846, 849.593 339.473, 852 337.260 C 854.660 334.814, 856 332.728, 856 331.032 C 856 329.539, 856.855 327.947, 858.062 327.193 C 859.490 326.301, 860.028 325.075, 859.812 323.203 C 859.593 321.308, 860.098 320.188, 861.500 319.457 C 862.871 318.742, 863.497 317.406, 863.490 315.207 C 863.485 313.443, 863.887 312, 864.384 312 C 866.406 312, 871.979 305.398, 871.989 302.991 C 871.996 301.529, 872.881 299.931, 874.110 299.164 C 875.753 298.137, 876.090 297.201, 875.635 294.923 C 875.267 293.086, 875.466 292, 876.169 292 C 878.361 292, 883.979 285.529, 883.989 282.991 C 883.996 281.529, 884.881 279.931, 886.110 279.164 C 887.753 278.137, 888.090 277.201, 887.635 274.923 C 887.313 273.315, 887.407 272, 887.843 272 C 888.280 272, 890.354 270.472, 892.453 268.605 C 895.555 265.845, 896.152 264.744, 895.644 262.719 C 895.156 260.775, 895.455 260.114, 897.005 259.709 C 902.090 258.379, 899.803 252.389, 894.607 253.429 C 892.954 253.759, 834.654 253.915, 765.051 253.775 C 695.448 253.636, 616.049 253.517, 588.609 253.511 C 530.461 253.498, 532.900 253.031, 542.259 262.390 C 545.369 265.500, 548.770 268, 549.889 268 C 552.010 268, 556.277 271.674, 557.323 274.400 C 557.692 275.361, 559.103 276, 560.858 276 C 563.287 276, 566.245 278.465, 578.390 290.610 C 588.272 300.492, 593 305.926, 593 307.401 C 593 308.666, 594.680 311.127, 597 313.260 C 599.463 315.524, 601 317.830, 601 319.260 C 601 320.690, 602.537 322.996, 605 325.260 C 607.638 327.685, 609 329.797, 609 331.460 C 609 332.900, 609.859 334.519, 611 335.232 C 612.213 335.989, 613 337.564, 613 339.232 C 613 340.900, 613.787 342.475, 615 343.232 C 616.213 343.989, 617 345.564, 617 347.232 C 617 348.900, 617.787 350.475, 619 351.232 C 620.544 352.196, 621 353.564, 621 357.232 C 621 360.900, 621.456 362.268, 623 363.232 C 624.679 364.281, 625 365.564, 625 371.232 C 625 376.900, 625.321 378.183, 627 379.232 C 628.923 380.433, 629 381.564, 629 408.500 C 629 435.641, 628.936 436.559, 626.955 437.796 C 625.170 438.911, 624.948 439.926, 625.205 445.786 C 625.463 451.660, 625.250 452.628, 623.500 453.523 C 622.350 454.112, 621.357 455.797, 621.163 457.490 C 620.977 459.109, 619.965 461.037, 618.913 461.774 C 617.831 462.531, 617 464.288, 617 465.816 C 617 467.436, 616.199 469.019, 615 469.768 C 613.479 470.718, 613 472.100, 613 475.540 C 613 479.536, 612.535 480.490, 609 483.740 C 606.624 485.925, 605 488.325, 605 489.653 C 605 491.123, 602.265 494.578, 597 499.760 C 592.200 504.483, 589 508.446, 589 509.666 C 589 512.647, 576.806 524.999, 573.857 525.005 C 572.288 525.008, 569.571 527.014, 565.731 531.005 C 562.002 534.881, 559.159 537, 557.690 537 C 556.319 537, 553.960 538.586, 551.740 541 C 549.315 543.638, 547.203 545, 545.540 545 C 544.100 545, 542.481 545.859, 541.768 547 C 540.804 548.544, 539.436 549, 535.768 549 C 532.100 549, 530.732 549.456, 529.768 551 C 529.011 552.213, 527.436 553, 525.768 553 C 524.100 553, 522.525 553.787, 521.768 555 C 520.719 556.679, 519.436 557, 513.768 557 C 508.100 557, 506.817 557.321, 505.768 559 C 504.567 560.923, 503.436 561, 476.500 561 C 449.564 561, 448.433 560.923, 447.232 559 C 446.138 557.248, 444.900 557, 437.232 557 C 429.564 557, 428.327 556.752, 427.232 555 C 426.268 553.456, 424.900 553, 421.232 553 C 417.564 553, 416.196 552.544, 415.232 551 C 414.475 549.787, 412.900 549, 411.232 549 C 409.564 549, 407.989 548.213, 407.232 547 C 406.475 545.787, 404.900 545, 403.232 545 C 401.564 545, 399.989 544.213, 399.232 543 C 398.475 541.787, 396.900 541, 395.232 541 C 393.564 541, 391.989 540.213, 391.232 539 C 390.519 537.859, 388.900 537, 387.460 537 C 385.797 537, 383.685 535.638, 381.260 533 C 379.122 530.674, 376.667 529, 375.396 529 C 372.421 529, 352.002 508.620, 351.995 505.645 C 351.992 504.335, 349.656 501.254, 345.995 497.731 C 341.840 493.733, 340 491.204, 340 489.490 C 340 488.100, 339.124 486.470, 338 485.768 C 336.787 485.011, 336 483.436, 336 481.768 C 336 480.100, 335.213 478.525, 334 477.768 C 332.787 477.011, 332 475.436, 332 473.768 C 332 472.100, 331.213 470.525, 330 469.768 C 328.787 469.011, 328 467.436, 328 465.768 C 328 464.100, 327.213 462.525, 326 461.768 C 324.456 460.804, 324 459.436, 324 455.768 C 324 452.100, 323.544 450.732, 322 449.768 C 320.321 448.719, 320 447.436, 320 441.768 C 320 436.100, 319.679 434.817, 318 433.768 C 316.060 432.556, 316 431.436, 316 396.500 C 316 361.564, 316.060 360.444, 318 359.232 C 319.544 358.268, 320 356.900, 320 353.232 C 320 349.564, 320.456 348.196, 322 347.232 C 323.544 346.268, 324 344.900, 324 341.232 C 324 337.564, 324.456 336.196, 326 335.232 C 327.141 334.519, 328 332.900, 328 331.460 C 328 329.797, 329.362 327.685, 332 325.260 C 334.463 322.996, 336 320.690, 336 319.260 C 336 317.830, 337.537 315.524, 340 313.260 C 342.316 311.130, 344 308.666, 344 307.404 C 344 304.193, 380.377 268, 383.605 268 C 384.913 268, 386.545 267.100, 387.232 266 C 387.953 264.846, 389.564 264, 391.041 264 C 392.448 264, 394.140 263.460, 394.800 262.800 C 396.350 261.250, 396.350 255.750, 394.800 254.200 C 393.054 252.454, 39.946 252.454, 38.200 254.200" fill="currentColor" fill-rule="evenodd"/></svg>
